<svg xmlns="http://www.w3.org/2000/svg" width="20" height="20" viewBox="0 0 20 20" fill="none">
  <path d="m3,6h2c.552,0,1-.448,1-1v-2" fill="currentColor" stroke="currentColor" stroke-linecap="round" stroke-linejoin="round" stroke-width="2" />
  <path d="m9,9h2c.552,0,1-.448,1-1v-2" stroke="currentColor" stroke-linejoin="round" stroke-width="2" fill="currentColor" />
  <path d="m10.039,3.104c-.168-.065-.348-.104-.539-.104h-3.5l-3,3v6.5c0,.828.672,1.5,1.5,1.5h1" fill="none" stroke="currentColor" stroke-linecap="round" stroke-linejoin="round" stroke-width="2" />
  <path d="m17,15.5v-8c0-.828-.672-1.5-1.5-1.5h-3.5s-3,3-3,3v6.5c0,.828.672,1.5,1.5,1.5h5c.828,0,1.5-.672,1.5-1.5Z" fill="none" stroke="currentColor" stroke-linecap="round" stroke-linejoin="round" stroke-width="2" />
</svg>
