<svg xmlns="http://www.w3.org/2000/svg" width="20" height="20" viewBox="0 0 20 20" fill="none">
  <path d="m7,7v-2.5c0-.828.672-1.5,1.5-1.5h3c.828,0,1.5.672,1.5,1.5v2.5" fill="none" stroke="currentColor" stroke-linecap="round" stroke-linejoin="round" stroke-width="2" />
  <path d="m15.5,7H4.5c-.828,0-1.5.672-1.5,1.5v3c0,.828.672,1.5,1.5,1.5h2.5v-3h6v3h2.5c.828,0,1.5-.672,1.5-1.5v-3c0-.828-.672-1.5-1.5-1.5Zm-.5,3c-.552,0-1-.448-1-1s.448-1,1-1,1,.448,1,1-.448,1-1,1Z" stroke-width="0" fill="currentColor" />
  <path d="m7,13h-2.5c-.828,0-1.5-.672-1.5-1.5v-3c0-.828.672-1.5,1.5-1.5h11c.828,0,1.5.672,1.5,1.5v3c0,.828-.672,1.5-1.5,1.5h-2.5" fill="none" stroke="currentColor" stroke-linecap="round" stroke-linejoin="round" stroke-width="2" />
  <path d="m7,10h6v5.5c0,.828-.672,1.5-1.5,1.5h-3c-.828,0-1.5-.672-1.5-1.5v-5.5h0Z" fill="none" stroke="currentColor" stroke-linecap="round" stroke-linejoin="round" stroke-width="2" />
</svg>
